<svg xmlns="http://www.w3.org/2000/svg" width="1003.5" height="242.57" viewBox="0 0 1003.5 242.57"><defs><style>.cls-1{fill:none;stroke:#000;stroke-miterlimit:10;stroke-width:3px;}</style></defs><title>Asset 4</title><g id="Layer_2" data-name="Layer 2"><g id="Layer_2-2" data-name="Layer 2"><path d="M442.9,132.92c-6.65-7.63-18.22-16.5-34.73-16.5-24.63,0-41.87,19-41.87,43.6,0,28.82,21.92,43.1,41.38,43.1,16,0,28.57-9.35,36.46-18v13.3a54.8,54.8,0,0,1-36.71,14c-30.3,0-51.48-22.41-51.48-52.22s19.95-53.2,52.22-53.2a52.77,52.77,0,0,1,34.73,12.81Z"/><path d="M467.28,75.77a8.87,8.87,0,1,1,8.87,9.12A8.74,8.74,0,0,1,467.28,75.77Zm13.8,33.5V209.78h-9.86V109.27Z"/><path d="M526.4,30.2V209.78h-9.86V30.2Z"/><path d="M643.64,109.27h9.86V209.78h-9.86v-18c-10.1,15.52-26.11,20.69-39.16,20.69-26.36,0-49-19.95-49-52.95,0-31,19.7-52.47,49-52.47,15.76,0,29.56,6.16,39.16,19.7ZM565.8,158.79c0,22.66,14,44.33,39.41,44.33,25.13,0,38.92-21.18,38.92-44.33,0-29.81-21.92-42.37-39.16-42.37C585,116.42,565.8,131.44,565.8,158.79Z"/><path d="M689,109.27h9.85V125c4.68-8.38,13.8-18,30.79-18,18,0,25.62,10.59,27.84,14,4.43,7.14,4.93,16.5,4.93,25.37v63.31h-9.86V146.47c0-6.9-.24-14.53-3.94-20.2-2.22-3.69-7.63-9.85-19.7-9.85-13.8,0-20.94,7.39-24.64,14-4.43,7.88-5.42,17.24-5.42,27.09v52.23H689Z"/><path d="M808.42,118.63v91.15h-9.85V118.63H787.48v-9.36h11.09v-36h9.85v36h17.49v9.36Z"/><path d="M845.61,109.27h9.85v13.06c3.7-8.62,11.33-15.27,22.17-15.27a23.32,23.32,0,0,1,10.59,2.46l-4.92,8.87c-1-.74-3-2-7.39-2-20.2,0-20.45,26.85-20.45,39.41v53.95h-9.85Z"/><path d="M1003.5,159.77c0,29.81-22.91,52.71-52.71,52.71s-52.72-22.9-52.72-52.71,22.91-52.71,52.72-52.71S1003.5,130,1003.5,159.77Zm-10.34,0c0-24.39-18.23-43.35-42.37-43.35s-42.37,19-42.37,43.35,18.23,43.35,42.37,43.35S993.16,184.16,993.16,159.77Z"/><path class="cls-1" d="M168.32,215.9s-3.69-4.36,6.29-9.37,18.88-6.38,26.73-.86,57.84,19.56,57.84,19.56-3.44-5.94-5.25-8.39c0,0,13.24,5.8,18.05,2.72,0,0,2.52-2.33-3.45-5.95,0,0,7,3.77,10.24.46,0,0,1.83-1.35.32-2.12,0,0,9.26-.24,10.19-2.81.16-1.06-3.65-8.15-7.53-7.65s2.07-2.94,2.07-2.94.4-2.66-14-4.28c0,0,5.26-2.47,5.5-4.06s.48-3.18-4.06-5.5-18.28-1.12-35.53,1.71c0,0,24-7.79,28.13-6.62,0,0,18.39-3.2,19.37-2.51,0,0,2.45-1.8-2.54-4.73,0,0,9.34-.76,13.06-11.06,0,0-4.59-5.57-9.28-6.82s-12.61.82-12.61.82A35.3,35.3,0,0,1,284,150.27c5.87-2.91,6.62-11.48,6.62-11.48s-1.57-4-9-1.36c0,0,5.65-5.12,7.27-8.68s-3.55-1.62-3.55-1.62,3.16-6.58,2.34-8.33-4.3-3.9-8-.67l.1-4.32a9.58,9.58,0,0,0-5.78,2.38s0-7.06-1.62-7.3-9.13,3-17.25,13.69c0,0,.48-14-2.86-13.46s-8.31,4.72-9.16,6.77c0,0-1.65-3.51-3-2.08s-3,5.52-4.54,8.55c-1.38,2-1.91,1.88-1.91,1.88s2.61-13.72-1.16-17.54c-2.89,1.19-1.75.82-6,4,0,0-1.35-1.84-2.49-1.47s-6.43,6.64-7.36,9.21c0,0-.79-5.55-2.38-5.79s-7.38,2.15-11.37,17.83c0,0-.36-12-8.49-12.13-2.52,2.33-5.52,7.85-5.39,10.58,0,0-2.94-2.07-4.16-1.17s1,11.55,1,11.55,3,27,2.8,31.9,2.4,23.7-22,34.14L155,145.51s-4-16.88,11.06-26.56,37.82-13.3,37.82-13.3.77-1.51.32-2.13S212.3,100.4,215,97c.48-3.18,6.19-5,6-7.24s-4.59-5.58-19.22,1.45c0,0,25.62-15.14,20.95-20.19-1.27-2.36-4-2.23-10.56,1.67,0,0,12.16-12.28,8.68-14.43-.29-1.67-3.71-.56-4.32-.11s3-1.72.24-12.45c-4.16-1.17-8.76,4.11-8.76,4.11s-.74-2.28-1.8-2.44-6.72,5-9.11,10c0,0-.95-4.49-3.07-4.81s-2.42-2-14.1,18c0,0-1.44-1.3.5-7,4.07-5.36,7.23-11.94,5.05-15.52s-7.37,2.15-7.37,2.15,7.46-13.53,5.5-14.92-5.18,1.94-5.18,1.94,3.64-9.77-2.94-12.93c-6,.19-8.84,4.64-9.16,6.77a2.32,2.32,0,0,0-2-1.39c-1.59-.24-5.87,2.92-9.43,23,0,0,3.51-23.35,7.28-30.38,0,0-.79-5.55-3.79,0,0,0,.43-6.45-3.13-8.07s-8.47,5.78-9.56,9.41c0,0,3.25-18-2.22-17.7,0,0-1.27-2.36-3.66,2.71,0,0-1.25-6.16-7.08-7s-5.21,5.73-5.21,5.73l-3.47-2.15s-2.15,3.47-.46,10.24c0,0-1.64-3.5-4.38-3.37s-7.64,7.53,2.06,18.76c0,0-7.74-9.85-14.3-5.95-5.12,5.2,1.51,11.63,1.51,11.63s-3.8,0-3.88.5-2.73.13,2,4.64,12,6.7,17.21,22.68c0,0-11.9-21.88-19.2-20.26,0,0-2.45,1.8-2.15,3.47,0,0-3.16-4.27-7.57-3.85l-.32,2.12s-4.69-1.25-7.58-.05,0,10.85,2,11.7c0,0-3.26,0-5.09,1.4s8.72,10.55,13,11.18a7.51,7.51,0,0,0-9.58,2.36c-1.41,5.76,13.13,10.12,13.13,10.12s7.8,2.26,7.64,3.32,1.56,4,1.56,4-2-4.64-9.89-6.37a5.54,5.54,0,0,0,.21,2.2,10.59,10.59,0,0,0-7-.5c-4,1-1.87,16,2.22,17.7,0,0-13.39-15.59-23.54-9.52-2.07,3-.5,7,1.38,8.9,0,0-8.67-7.28-15.68-4a5.25,5.25,0,0,0,0,3.79s-6.58-3.16-10.72,2.73c0,0-2,2.41,1.93,5.18,0,0-3.26,0-2.44,1.8s1.19,2.89,8.91,5.68c0,0-6.61.64-7.62,3.74S55.5,128.9,73.78,130l-9,2.44s-3.47-2.15-4.62-1.78S59,134.31,59,134.31s-6.2-2-9.18-.29.48,7.67.48,7.67l-2.13-.32s-.43,6.45,12,14.28l-1.59-.24s-22.17-18.53-23-16.49c0,0-1.15.37-.32,2.12,0,0-6.9-1-8.2.4s-.3,9.18,5.14,12.71c0,0-11.86-7.76-20.62-3.65,0,0,1,4.49,2.46,5.26,0,0-6.66-2.63-12.47,3.55-.35,5.92,2.44,9.05,7.66,10.38,0,0-5,.87-4.88,3.61s9.36,6.29,11.49,6.61c0,0-3.75,3.24-2.77,3.93s4.3,3.9,18.68,9.32c0,0-7.41,5.94-6.13,8.3s20,7.9,20,7.9-5.61,8.38-4.63,9.07,5.25,8.39,18.31,8.18l2.84,6.4s9.23,3.56,17.57-4.95c0,0-1.07,10.69,5.14,12.71S101,234,101,234l4.32.11s19-32.42,26.14-33S168.32,215.9,168.32,215.9Z"/><path class="cls-1" d="M158.69,204.13S154,137.76,140.6,136.82c0,0-13.84,34.28-7.75,51.48C132.85,188.3,131.79,199,158.69,204.13Z"/><path class="cls-1" d="M140.6,136.82s-51.9-12.15-71-.91"/><path class="cls-1" d="M165.48,209.5s50.18-30.44,93-65.79"/><path class="cls-1" d="M163.89,209.26s-14-79.73-27.65-158.85"/><path class="cls-1" d="M160.18,208.7s-85.44-34.57-118.26-40"/><path class="cls-1" d="M131.47,197.49s-21.64-25.68-26.73-46"/><path class="cls-1" d="M126.42,195.58S82.87,213.89,74.3,213.14"/><path class="cls-1" d="M124.15,123.49s-8.54-4.54-18.3-19"/><path class="cls-1" d="M255.32,204c-25.92-15.3-65.82-9.89-65.82-9.89s19.39-24.24,28.19-53.85"/><path class="cls-1" d="M152.33,143.25s-15-24.29-64.56-26.86"/><path class="cls-1" d="M150.73,134.08s.05-18,30.66-41.05"/><path class="cls-1" d="M143.46,92.22s10.55-22.85,16.37-29"/><path class="cls-1" d="M144,95.25s-28.61-25.18-32.37-29"/></g></g></svg>
